<?xml version="1.0" encoding="utf-8"?>
<!-- Generator: Adobe Illustrator 28.0.0, SVG Export Plug-In . SVG Version: 6.00 Build 0)  -->
<svg version="1.1" id="Слой_1" xmlns="http://www.w3.org/2000/svg" xmlns:xlink="http://www.w3.org/1999/xlink" x="0px" y="0px"
	 viewBox="0 0 1000 504.6" style="enable-background:new 0 0 1000 504.6;" xml:space="preserve">
<style type="text/css">
	.st0{fill:#2DBE64;}
</style>
<g>
	<path class="st0" d="M840.7,504.6H483.3V0h325.4c105,0,162.1,65.5,162.1,142.9c0,34.8-17.5,70.3-44.4,97.2
		c39.6,20.9,73.6,68,73.6,117.2C1000,443.7,932.5,504.6,840.7,504.6z M608.1,403.1h215.7c30.2,0,50.1-22.3,50.1-49.8v-0.8
		c0-27.5-19.9-49.8-50.1-49.8H608.1V403.1z M608.1,201.1h184.5c32.7,0,52.1-22.3,52.1-49.8c0-27.5-18.2-49.8-52.1-49.8H608.1V201.1z
		"/>
	<path class="st0" d="M264.1,504.6H0V0h232.1c105,0,162.1,65.5,162.1,142.9c0,34.8-17.5,70.3-44.4,97.2
		c39.6,20.9,73.6,68,73.6,117.2C423.4,443.7,355.9,504.6,264.1,504.6z M124.7,403.1h122.4c30.2,0,50.1-22.3,50.1-49.8v-0.8
		c0-27.5-19.9-49.8-50.1-49.8H124.7V403.1z M124.7,201.1h91.2c32.7,0,52.1-22.3,52.1-49.8c0-27.5-18.2-49.8-52.1-49.8h-91.2V201.1z"
		/>
</g>
</svg>
