<?xml version="1.0" encoding="utf-8"?>
<!-- Generator: Adobe Illustrator 28.0.0, SVG Export Plug-In . SVG Version: 6.00 Build 0)  -->
<svg version="1.1" id="Слой_1" xmlns="http://www.w3.org/2000/svg" xmlns:xlink="http://www.w3.org/1999/xlink" x="0px" y="0px"
	 viewBox="0 0 828.0247803 1000" enable-background="new 0 0 828.0247803 1000" xml:space="preserve">
<path d="M825.8525391,884.9643555c-4.2244263-5.7484131-40.7870483-31.2064819-58.3969727-50.6184082
	c-17.6099854-19.4119263-38.508606-45.8031616-83.1849976-63.0482788
	c-53.7605591-18.7765503-149.3581543-36.8084106-149.3581543-36.8084106l25.68396-97.0917358h15.8898926
	c76.1931763,0,144.7589722-34.4926758,144.7589722-102.1326904c0-21.7276001-1.906189-34.1203613-1.906189-34.1203613
	s92.569519-69.8043823,92.569519-188.1397095c0-98.8470154-111.9367065-166.3756256-111.9367065-223.4519501
	c0-14.2224808,12.1147461-28.2208405,36.3045044-30.5725555l44.4505005-5.6366653
	c10.5808716-1.344017,11.253479-16.4250298,0.8240356-18.6648064l-42.5095215-9.2576942
	c-5.3463135-1.1571178-10.3922729-3.4716053-14.8052979-6.7565594l-4.3360596-3.247551
	C709.9545288,7.6524944,703.225769,0,676.680542,0c-26.7313843,0-51.8171387,16.8354797-51.8171387,70.7763138
	c0,89.4034195,109.3181152,145.0240479,109.3181152,227.3338623c0,31.5440063-24.1152954,65.9249573-74.4730225,65.9249573
	c-61.6881714,0-111.3013306-76.3023071-243.3498535-76.3023071c-44.2643433,0-86.2129822,8.5877686-120.4971619,26.3540955
	c-64.0800934-31.0202942-271.7247925,21.5017395-271.7247925,200.7955322c0,29.526123,10.3185081,55.3963013,34.5077972,55.3963013
	c8.7483826,0,18.6931-4.6290283,22.1701584-6.3837891c4.2993622-2.1643066,17.1229782-8.6225586,17.1229782-8.6225586
	s15.9266281,21.6506958,43.6302109,21.6506958c57.2386475,0,86.2505188-46.6992188,86.2505188-46.6992188l39.9292603,31.0947266
	L189.0112,615.9330444c-6.5800934,4.5545044-11.5523224,11.0499268-14.2443237,18.6275635l-68.3049927,186.6082764
	c-2.8788986,7.9499512-6.5428619,9.6303101-12.5620117,11.7946167c-8.1876907,2.8741455-45.9479294,12.9909058-36.1526299,44.609314
	c-26.021019-8.9202881-43.6676979,33.4478149-50.2102318,54.1279907
	c-6.5800142,20.6801758-9.1970816,50.9533691-6.4678502,58.6054688c0,0,5.7575207,12.7675171,16.5621586,8.9973755
	c1.4207096-0.4864502,2.6170444-1.3825073,3.7386684-2.3902588c14.8799686-13.0256348,18.6558704-17.0588379,45.7985153-41.4348145
	c42.6207809-38.3373413,84.5309601-54.0510254,116.3842316-127.4046021
	c28.8251953-66.4090576,63.5568848-141.2543945,63.5568848-141.2543945
	c5.122879-10.1142578,14.4677124-17.3939819,25.4978027-19.9703979l185.5857239-42.8173218l-8.8583374,140.4328003
	c-1.0101624,15.8278198,9.9802246,29.9009399,25.5722656,32.7750854l177.7723694,30.796875
	C665.0175171,864.06073,682.8881226,871.75,702.925415,858.7963257
	c-1.9806519,10.6752319-1.5313721,20.9408569,19.1066284,32.3283691
	c20.6355591,11.3850098,42.5443115,14.5570068,60.1170654,16.0139771
	c10.2805176,0.8563232,18.6549072,0.7818604,25.3091431-0.0744019c8.0021362-1.0474854,16.4881592-4.4428711,19.7047729-11.8342896
	C828.3966064,892.2068481,828.5827637,888.6600342,825.8525391,884.9643555z"/>
<path fill="#FFE033" d="M339.0114136,341.1012268l-217.140152,108.6281738l15.5900879,58.084259l162.7064362-81.8992615
	l-44.7905579,66.4089661l51.2959595,39.8290405l113.5053101-69.0573425
	c-13.159668,18.8137512-41.0501404,62.3384705-2.8419189,97.9877625
	c58.9951782,55.0239258,180.2419128-39.791748,239.6491394-89.4024048l-29.6105347-40.76474
	c-62.6983643,49.9109802-146.8934937,98.8489685-163.2673645,84.2522278
	c-16.2622375-14.4825745,30.6554565-67.1163635,60.9013367-101.0505371l0.4865112-0.5212402l-51.0700989-50.8417358
	l-131.6737366,84.0263672l41.611084-60.0252075L339.0114136,341.1012268z"/>
</svg>
