<?xml version="1.0" encoding="utf-8"?>
<!-- Generator: Adobe Illustrator 28.0.0, SVG Export Plug-In . SVG Version: 6.00 Build 0)  -->
<svg version="1.1" id="Слой_1" xmlns="http://www.w3.org/2000/svg" xmlns:xlink="http://www.w3.org/1999/xlink" x="0px" y="0px"
	 viewBox="0 0 1000 1000" style="enable-background:new 0 0 1000 1000;" xml:space="preserve">
<style type="text/css">
	.st0{fill:#FFE033;}
</style>
<path class="st0" d="M320.5,0.4h360c176.7,0,320,143.3,320,320v360c0,176.7-143.3,320-320,320h-360c-176.7,0-320-143.3-320-320v-360
	C0.5,143.7,143.7,0.4,320.5,0.4z"/>
<path d="M766.1,699.2c-60,53.2-138.4,85.2-224,85.2c-179.4,0-313.8-139-313.8-298c0-149.2,119-271.2,266.8-271.2
	c139.2,0,240,108,240,225c0,109.6-86.6,198.6-193,198.6c-97.2,0-165.8-73.6-165.8-152.2c0-70.6,54.6-126,118.8-126
	c56.8,0,92,41.6,92,79.6c0,33-23.4,53-45,53c-7.6,0-10.4-1.6-13.6-3.4c14.8-18.3,11.9-45.1-6.5-59.9c-9.4-7.5-21.5-10.8-33.3-8.9
	c-16.2,2.7-30.4,12.5-38.8,26.6c-7.2,11.7-10.9,25.2-10.8,39c0,56,52.2,92.4,103,92.4c74.2,0,130-64.8,130-138.8
	c0-90.4-78.4-165.2-177-165.2c-114.6,0-204,97-204,211.6c0,129.6,110.6,238,251.2,238c155.2,0,278-129.4,278-284.4
	c0-166.6-141.2-310.6-325.2-310.6c-196,0-352,161.4-352,357c0,208.6,175.2,383.4,399.2,383.4c107,0,205.2-40.2,280-106.4l-56-64.4
	L766.1,699.2z"/>
</svg>
